HIERARCHY
ROOT root     
{
	OFFSET 0.0000 0.0000 0.0000
	CHANNELS 6 Xposition Yposition Zposition Zrotation Yrotation Xrotation
	JOINT pelvis   
	{
		OFFSET 0.0000 0.0000 0.0000
		CHANNELS 3 Zrotation Yrotation Xrotation
		JOINT thorax   
		{
			OFFSET 0.0000 23.0750 -5.0000
			CHANNELS 3 Zrotation Yrotation Xrotation
			JOINT rclavicle
			{
				OFFSET 0.0000 28.0009 0.0000
				CHANNELS 3 Zrotation Yrotation Xrotation
				JOINT rhumerus 
				{
					OFFSET -18.5725 5.5939 0.0000
					CHANNELS 3 Zrotation Yrotation Xrotation
					JOINT rradius  
					{
						OFFSET -24.8459 0.0000 0.0000
						CHANNELS 3 Zrotation Yrotation Xrotation
						JOINT rhand    
						{
							OFFSET -24.5477 0.0000 0.0000
							CHANNELS 3 Zrotation Yrotation Xrotation
							End Site
							{
								OFFSET -8.1826 0.0000 0.0000
							}
						}
					}
				}
			}
			JOINT lclavicle
			{
				OFFSET 0.0000 28.0009 0.0000
				CHANNELS 3 Zrotation Yrotation Xrotation
				JOINT lhumerus 
				{
					OFFSET 18.5725 5.5939 0.0000
					CHANNELS 3 Zrotation Yrotation Xrotation
					JOINT lradius  
					{
						OFFSET 24.8459 0.0000 0.0000
						CHANNELS 3 Zrotation Yrotation Xrotation
						JOINT lhand    
						{
							OFFSET 24.5477 0.0000 0.0000
							CHANNELS 3 Zrotation Yrotation Xrotation
							End Site
							{
								OFFSET 8.1826 0.0000 0.0000
							}
						}
					}
				}
			}
			JOINT head     
			{
				OFFSET 0.0000 35.2030 0.0000
				CHANNELS 3 Zrotation Yrotation Xrotation
				End Site
				{
					OFFSET 0.0000 11.7343 0.0000
				}
			}
		}
		JOINT rfemur   
		{
			OFFSET -8.2817 0.0000 0.0000
			CHANNELS 3 Zrotation Yrotation Xrotation
			JOINT rtibia   
			{
				OFFSET 0.0000 -43.3627 0.0000
				CHANNELS 3 Zrotation Yrotation Xrotation
				JOINT rfoot    
				{
					OFFSET 0.0000 -38.2947 0.0000
					CHANNELS 3 Zrotation Yrotation Xrotation
					JOINT rtoes    
					{
						OFFSET 0.0000 0.0000 16.6054
						CHANNELS 3 Zrotation Yrotation Xrotation
						End Site
						{
							OFFSET 0.0000 0.0000 5.5351
						}
					}
				}
			}
		}
		JOINT lfemur   
		{
			OFFSET 8.2817 0.0000 0.0000
			CHANNELS 3 Zrotation Yrotation Xrotation
			JOINT ltibia   
			{
				OFFSET 0.0000 -43.3627 0.0000
				CHANNELS 3 Zrotation Yrotation Xrotation
				JOINT lfoot    
				{
					OFFSET 0.0000 -38.2947 0.0000
					CHANNELS 3 Zrotation Yrotation Xrotation
					JOINT ltoes    
					{
						OFFSET 0.0000 0.0000 16.6054
						CHANNELS 3 Zrotation Yrotation Xrotation
						End Site
						{
							OFFSET 0.0000 0.0000 5.5351
						}
					}
				}
			}
		}
	}
}
MOTION
Frames: 10
Frame Time: 0.008333
159.2060 85.8314 52.9890 -0.8556 -19.4668 11.1927 0.0000 -0.0000 0.0000 3.2193 -3.7771 -9.0047 29.6087 -3.2327 -0.0000 54.7423 9.3276 7.2835 -0.0000 19.9578 -0.0000 3.9266 4.4951 0.1542 -29.9559 10.0528 0.0000 -51.7689 10.4474 11.0195 0.0000 -22.9781 -0.0000 3.2534 0.4372 0.0124 -0.2616 -11.5241 1.3315 9.2606 6.0943 -11.0790 -0.0000 -0.0000 0.3027 -0.0000 -11.0182 0.3043 179.9408 0.0000 -20.8122 4.3499 0.2866 -28.9845 -0.0000 -0.0000 61.9569 0.0000 14.0563 1.4668 0.3672 0.0000 -21.0260
159.0440 85.8528 53.4666 -0.7367 -20.0298 11.1598 0.0000 -0.0000 0.0000 2.9819 -3.3999 -8.9002 29.4962 -3.0746 -0.0000 54.9148 9.9713 7.7141 -0.0000 20.3335 -0.0000 4.0300 4.5069 0.1586 -29.9899 10.1237 0.0000 -51.8252 10.6710 10.9024 0.0000 -23.0347 -0.0000 3.1450 0.5353 0.0147 -0.3095 -11.6262 1.3336 9.1753 6.0750 -10.8480 -0.0000 -0.0000 0.5871 0.0000 -10.4381 0.0380 179.9930 0.0000 -21.4840 4.4171 -0.4351 -29.7237 -0.0000 -0.0000 60.7346 -0.0000 13.9778 1.0104 0.2515 -0.0000 -20.6459
158.8770 85.8695 53.9490 -0.6237 -20.6022 11.1144 0.0000 -0.0000 0.0000 2.7531 -3.0220 -8.7759 29.3889 -2.9643 0.0000 55.0714 10.6513 8.2676 -0.0000 20.7194 -0.0000 4.0940 4.5425 0.1624 -30.0263 10.1773 0.0000 -51.8614 10.9069 10.8483 0.0000 -23.1323 -0.0000 3.0343 0.6329 0.0168 -0.3503 -11.7197 1.3081 9.0882 6.0920 -10.5902 -0.0000 -0.0000 0.8538 -0.0000 -9.8928 -0.2242 -179.9609 0.0000 -22.1293 4.5044 -1.1159 -30.4074 -0.0000 -0.0000 59.4074 -0.0000 13.9398 0.6127 0.1521 0.0000 -20.3871
158.7050 85.8814 54.4362 -0.5163 -21.1825 11.0582 0.0000 -0.0000 0.0000 2.5320 -2.6472 -8.6397 29.2729 -2.8230 0.0000 55.2348 11.2592 8.7451 -0.0000 21.1716 -0.0000 4.1680 4.5773 0.1666 -30.0574 10.2342 0.0000 -51.8846 11.1259 10.8788 0.0000 -23.2407 -0.0000 2.9298 0.7232 0.0185 -0.3858 -11.8013 1.2632 8.9967 6.1432 -10.3059 -0.0000 -0.0000 1.0969 -0.0000 -9.3816 -0.4824 -179.9203 -0.0000 -22.7263 4.6065 -1.7529 -31.0376 -0.0000 -0.0000 57.9837 -0.0000 13.9214 0.2718 0.0674 -0.0000 -20.2044
158.5270 85.8883 54.9256 -0.4184 -21.7684 11.0030 0.0000 -0.0000 0.0000 2.3242 -2.2744 -8.5024 29.1645 -2.7212 -0.0000 55.3785 11.8859 9.3291 -0.0000 21.6374 -0.0000 4.2085 4.6318 0.1703 -30.0873 10.2758 0.0000 -51.8966 11.3559 10.9473 0.0000 -23.3742 -0.0000 2.8277 0.8076 0.0199 -0.4162 -11.8725 1.2027 8.9041 6.2456 -10.0009 -0.0000 -0.0000 1.3032 0.0000 -8.9215 -0.7280 -179.8857 -0.0000 -23.2585 4.7278 -2.3390 -31.6275 -0.0000 -0.0000 56.4735 0.0000 13.8961 -0.0075 -0.0019 0.0000 -20.1029
158.3440 85.8899 55.4168 -0.3305 -22.3570 10.9522 0.0000 -0.0000 0.0000 2.1302 -1.9091 -8.3720 29.0523 -2.5959 -0.0000 55.5206 12.4460 9.8593 -0.0000 22.1584 -0.0000 4.2568 4.6851 0.1742 -30.1097 10.3243 -0.0000 -51.9034 11.5662 11.0714 0.0000 -23.5045 -0.0000 2.7334 0.8819 0.0210 -0.4441 -11.9308 1.1341 8.8112 6.3886 -9.6807 -0.0000 -0.0000 1.4757 -0.0000 -8.5032 -0.9649 -179.8557 0.0000 -23.7160 4.8647 -2.8706 -32.1824 -0.0000 -0.0000 54.8834 -0.0000 13.8413 -0.2234 -0.0550 0.0000 -20.0407
158.1540 85.8860 55.9062 -0.2598 -22.9448 10.9210 0.0000 -0.0000 0.0000 1.9585 -1.5530 -8.2629 28.9495 -2.4994 -0.0000 55.6415 13.0087 10.4675 -0.0000 22.6898 -0.0000 4.2825 4.7530 0.1778 -30.1306 10.3633 -0.0000 -51.9057 11.7846 11.2061 0.0000 -23.6467 -0.0000 2.6419 0.9492 0.0219 -0.4713 -11.9766 1.0625 8.7244 6.5814 -9.3589 -0.0000 -0.0000 1.6126 0.0000 -8.1346 -1.1892 -179.8300 0.0000 -24.0959 5.0228 -3.3385 -32.7200 -0.0000 -0.0000 53.2208 -0.0000 13.7366 -0.3671 -0.0897 -0.0000 -20.0273
157.9590 85.8767 56.3947 -0.2031 -23.5280 10.9066 0.0000 -0.0000 0.0000 1.8040 -1.2102 -8.1752 28.8516 -2.3917 -0.0000 55.7519 13.5195 11.0439 -0.0000 23.2589 -0.0000 4.3152 4.8188 0.1817 -30.1446 10.4084 -0.0000 -51.9067 11.9864 11.3658 0.0000 -23.7794 -0.0000 2.5579 1.0080 0.0225 -0.4977 -12.0114 0.9919 8.6437 6.8011 -9.0379 -0.0000 -0.0000 1.7245 -0.0000 -7.7951 -1.4100 -179.8070 0.0000 -24.3999 5.1942 -3.7400 -33.2382 -0.0000 -0.0000 51.4857 0.0000 13.5728 -0.4338 -0.1047 0.0000 -20.0357
157.7570 85.8618 56.8786 -0.1692 -24.1029 10.9250 0.0000 -0.0000 0.0000 1.6787 -0.8857 -8.1229 28.7655 -2.3050 -0.0000 55.8416 14.0246 11.6697 -0.0000 23.8297 -0.0000 4.3362 4.8949 0.1854 -30.1589 10.4489 -0.0000 -51.9067 12.1941 11.5119 0.0000 -23.9154 -0.0000 2.4765 1.0603 0.0229 -0.5272 -12.0324 0.9268 8.5781 7.0530 -8.7336 -0.0000 -0.0000 1.8166 0.0000 -7.4888 -1.6261 -179.7863 0.0000 -24.6381 5.3852 -4.0639 -33.7543 -0.0000 -0.0000 49.6834 0.0000 13.3441 -0.4144 -0.0983 -0.0000 -20.0820
157.5480 85.8414 57.3596 -0.1556 -24.6664 10.9702 0.0000 -0.0000 0.0000 1.5765 -0.5822 -8.1007 28.6903 -2.2185 -0.0000 55.9171 14.4958 12.2808 -0.0000 24.4150 -0.0000 4.3621 4.9707 0.1894 -30.1700 10.4927 0.0000 -51.9072 12.3924 11.6540 0.0000 -24.0417 -0.0000 2.4028 1.1062 0.0232 -0.5584 -12.0427 0.8682 8.5277 7.3127 -8.4445 -0.0000 -0.0000 1.9004 0.0000 -7.1942 -1.8464 -179.7670 -0.0000 -24.8203 5.5855 -4.3075 -34.2602 -0.0000 -0.0000 47.8103 0.0000 13.0575 -0.3047 -0.0707 0.0000 -20.1587
